<?xml version="1.0" encoding="UTF-8" standalone="no"?>
<svg
   xmlns:dc="http://purl.org/dc/elements/1.1/"
   xmlns:cc="http://creativecommons.org/ns#"
   xmlns:rdf="http://www.w3.org/1999/02/22-rdf-syntax-ns#"
   xmlns:svg="http://www.w3.org/2000/svg"
   xmlns="http://www.w3.org/2000/svg"
   xmlns:sodipodi="http://sodipodi.sourceforge.net/DTD/sodipodi-0.dtd"
   xmlns:inkscape="http://www.inkscape.org/namespaces/inkscape"
   viewBox="0 0 500 310.18314"
   height="310.18314"
   width="500"
   xml:space="preserve"
   version="1.1"
   id="svg2"
   inkscape:version="0.91 r13725"
   sodipodi:docname="p2b_monochrome.svg"><sodipodi:namedview
     pagecolor="#000000"
     bordercolor="#666666"
     borderopacity="1"
     objecttolerance="10"
     gridtolerance="10"
     guidetolerance="10"
     inkscape:pageopacity="0"
     inkscape:pageshadow="2"
     inkscape:window-width="3840"
     inkscape:window-height="1963"
     id="namedview12"
     showgrid="false"
     fit-margin-top="0"
     fit-margin-left="0"
     fit-margin-right="0"
     fit-margin-bottom="0"
     inkscape:zoom="0.71719232"
     inkscape:cx="432.51615"
     inkscape:cy="6.0553035"
     inkscape:window-x="0"
     inkscape:window-y="70"
     inkscape:window-maximized="1"
     inkscape:current-layer="svg2" /><metadata
     id="metadata8"><rdf:RDF><cc:Work
         rdf:about=""><dc:format>image/svg+xml</dc:format><dc:type
           rdf:resource="http://purl.org/dc/dcmitype/StillImage" /><dc:title></dc:title></cc:Work></rdf:RDF></metadata><defs
     id="defs6"><clipPath
       id="clipPath16"
       clipPathUnits="userSpaceOnUse"><path
         id="path18"
         d="m 0,1489.156 1842.17,0 L 1842.17,0 0,0 0,1489.156 Z"
         inkscape:connector-curvature="0" /></clipPath></defs><g
     transform="matrix(0.29336867,0,0,-0.29336867,-9.5114131,377.02314)"
     id="g10"><path
       d="m 1002.694,732.4116 0,-122.339 243.853,0 0,-121.525 -365.367,0 0,61.181 0,60.344 0,76.029 0,107.468 c 0,16.544 6.053,30.858 18.182,42.987 11.572,11.571 25.897,17.357 42.987,17.357 l 182.684,0 0,122.339 -122.339,0 0,-45.45 -121.514,0 0,106.631 c 0,16.521 6.053,30.858 18.182,42.987 11.572,11.572 25.897,17.358 42.987,17.358 l 243.853,0 c 16.533,0 30.858,-5.786 42.987,-17.358 11.572,-12.129 17.358,-26.466 17.358,-42.987 l 0,-243.864 c 0,-17.079 -5.786,-31.694 -17.358,-43.801 -12.129,-11.571 -26.454,-17.357 -42.987,-17.357 l -183.508,0 z"
       style="fill:#ffffff;fill-opacity:1;fill-rule:nonzero;stroke:none"
       id="path22"
       inkscape:connector-curvature="0" /><path
       d="m 637.3157,875.4074 0,-21.493 -122.338,0 0,122.338 122.338,0 0,-100.845 z m 104.156,205.013 c -12.129,11.572 -26.453,17.358 -42.986,17.358 l -183.508,0 -35.25,0 -86.265,0 0,-91.342 0,-30.184 0,-122.338 0,-121.503 0,-142.182 0,-101.682 121.515,0 0,243.864 183.508,0 c 16.533,0 30.857,5.786 42.986,17.358 11.572,12.106 17.359,26.722 17.359,43.8 l 0,243.864 c 0,16.522 -5.787,30.859 -17.359,42.987"
       style="fill:#ffffff;fill-opacity:1;fill-rule:nonzero;stroke:none"
       id="path26"
       inkscape:connector-curvature="0" /><path
       d="m 1615.2465,609.9423 -122.338,0 0,122.338 122.338,0 0,-21.493 0,-100.845 z m 121.515,-61.181 0,243.864 c 0,17.078 -5.787,31.695 -17.359,43.8 -12.129,11.572 -26.453,17.358 -42.986,17.358 l -183.508,0 0,243.864 -121.515,0 0,-101.682 0,-142.182 0,-121.503 0,-122.338 0,-30.184 0,-91.342 86.265,0 35.25,0 183.508,0 c 16.533,0 30.857,5.786 42.986,17.358 11.572,12.128 17.359,26.465 17.359,42.987"
       style="fill:#ffffff;fill-opacity:1;fill-rule:nonzero;stroke:none"
       id="path30"
       inkscape:connector-curvature="0" /><path
       id="path3612"
       d="M 1079.4391,1213.7045 C -377.39012,1682.3506 -246.2904,-335.18135 1054.0078,384.76275 -199.00906,93.62837 -69.722312,1508.603 1079.4391,1213.7045 Z"
       style="fill:#ffffff;fill-opacity:1;fill-rule:evenodd;stroke:none;stroke-width:0.80000001px;stroke-linecap:butt;stroke-linejoin:miter;stroke-opacity:1"
       inkscape:connector-curvature="0" /></g></svg>