<?xml version="1.0" encoding="UTF-8" standalone="no"?>
<!-- Created with Inkscape (http://www.inkscape.org/) -->

<svg
   xmlns:dc="http://purl.org/dc/elements/1.1/"
   xmlns:cc="http://creativecommons.org/ns#"
   xmlns:rdf="http://www.w3.org/1999/02/22-rdf-syntax-ns#"
   xmlns:svg="http://www.w3.org/2000/svg"
   xmlns="http://www.w3.org/2000/svg"
   xmlns:sodipodi="http://sodipodi.sourceforge.net/DTD/sodipodi-0.dtd"
   xmlns:inkscape="http://www.inkscape.org/namespaces/inkscape"
   width="300.64023mm"
   height="120.78924mm"
   viewBox="0 0 1065.2607 427.99336"
   id="svg5093"
   version="1.1"
   inkscape:version="0.91 r13725"
   sodipodi:docname="p2b-pricing.svg">
  <defs
     id="defs5095" />
  <sodipodi:namedview
     id="base"
     pagecolor="#ffffff"
     bordercolor="#666666"
     borderopacity="1.0"
     inkscape:pageopacity="0.0"
     inkscape:pageshadow="2"
     inkscape:zoom="1.4"
     inkscape:cx="694.40789"
     inkscape:cy="118.2348"
     inkscape:document-units="px"
     inkscape:current-layer="layer1"
     showgrid="false"
     fit-margin-top="0"
     fit-margin-left="0"
     fit-margin-right="0"
     fit-margin-bottom="0"
     inkscape:window-width="3840"
     inkscape:window-height="1963"
     inkscape:window-x="0"
     inkscape:window-y="70"
     inkscape:window-maximized="1" />
  <metadata
     id="metadata5098">
    <rdf:RDF>
      <cc:Work
         rdf:about="">
        <dc:format>image/svg+xml</dc:format>
        <dc:type
           rdf:resource="http://purl.org/dc/dcmitype/StillImage" />
        <dc:title></dc:title>
      </cc:Work>
    </rdf:RDF>
  </metadata>
  <g
     inkscape:label="Calque 1"
     inkscape:groupmode="layer"
     id="layer1"
     style="display:inline"
     transform="translate(6758.8846,2094.551)">
    <path
       inkscape:connector-curvature="0"
       d="m -6648.267,-1779.9538 0,-53.2003 -37.2402,0 0,94.5138 q 9.892,-5.237 17.7057,-11.3883 19.5345,-15.2951 19.5345,-29.9252 z m 15.9602,-63.8403 0,63.8403 q 0,7.1488 -2.7848,14.1729 -2.7846,7.0242 -6.8994,12.4689 -4.1146,5.4448 -9.8087,10.5985 -5.6942,5.1538 -10.5155,8.5619 -4.8213,3.4082 -10.0581,6.4422 -5.2369,3.0341 -7.4398,4.1148 -2.2029,1.0806 -3.5328,1.6624 -0.9976,0.4989 -2.1613,0.4989 -1.1638,0 -2.1613,-0.4989 -1.33,-0.5818 -3.5328,-1.6624 -2.2028,-1.0807 -7.4397,-4.1148 -5.237,-3.034 -10.0582,-6.4422 -4.8213,-3.4081 -10.5154,-8.5619 -5.6941,-5.1537 -9.8089,-10.5985 -4.1146,-5.4447 -6.8994,-12.4689 -2.7847,-7.0241 -2.7847,-14.1729 l 0,-63.8403 q 0,-2.1614 1.5795,-3.7407 1.5793,-1.5794 3.7406,-1.5794 l 95.7606,0 q 2.1614,0 3.7407,1.5794 1.5794,1.5793 1.5794,3.7407 z"
       id="path4969"
       style="fill:#00547c;fill-opacity:1"
       inkscape:export-filename="/media/D/owncloud_backup/p2b_utils/Entreprises/Carrefour/images/flowRoot5926-3-9.png"
       inkscape:export-xdpi="109.83"
       inkscape:export-ydpi="109.83" />
    <path
       inkscape:connector-curvature="0"
       d="m -6330.6958,-2047.5407 0,21.2803 q 0,2.1612 -1.5794,3.7406 -1.5793,1.5795 -3.7407,1.5795 l -5.3199,0 q -2.1614,0 -3.7407,-1.5795 -1.5794,-1.5794 -1.5794,-3.7406 l 0,-21.2803 q 0,-8.8112 -6.2344,-15.0455 -6.2345,-6.2346 -15.0457,-6.2346 -8.8114,0 -15.0458,6.2346 -6.2344,6.2343 -6.2344,15.0455 l 0,15.9602 7.98,0 q 3.3251,0 5.6526,2.3275 2.3274,2.3276 2.3274,5.6526 l 0,47.8803 q 0,3.3251 -2.3274,5.6526 -2.3275,2.3274 -5.6526,2.3274 l -79.8005,0 q -3.3251,0 -5.6525,-2.3274 -2.3275,-2.3275 -2.3275,-5.6526 l 0,-47.8803 q 0,-3.325 2.3275,-5.6526 2.3274,-2.3275 5.6525,-2.3275 l 55.8604,0 0,-15.9602 q 0,-15.378 10.9311,-26.3091 10.9309,-10.931 26.3092,-10.931 15.3782,0 26.3091,10.931 10.9311,10.9311 10.9311,26.3091 z"
       id="path4998"
       style="fill:#00547c;fill-opacity:1"
       inkscape:export-filename="/media/D/owncloud_backup/p2b_utils/Entreprises/Carrefour/images/flowRoot5926-3-9.png"
       inkscape:export-xdpi="109.83"
       inkscape:export-ydpi="109.83" />
    <path
       inkscape:connector-curvature="0"
       d="m -6435.7921,-1790.5938 42.5603,0 0,-15.9602 q 0,-8.8112 -6.2345,-15.0457 -6.2344,-6.2344 -15.0456,-6.2344 -8.8114,0 -15.0457,6.2344 -6.2345,6.2345 -6.2345,15.0457 l 0,15.9602 z m 69.1604,7.98 0,47.8804 q 0,3.3251 -2.3274,5.6525 -2.3275,2.3275 -5.6526,2.3275 l -79.8005,0 q -3.3251,0 -5.6526,-2.3275 -2.3275,-2.3274 -2.3275,-5.6525 l 0,-47.8804 q 0,-3.325 2.3275,-5.6524 2.3275,-2.3276 5.6526,-2.3276 l 2.66,0 0,-15.9602 q 0,-15.295 10.9726,-26.2676 10.9725,-10.9725 26.2677,-10.9725 15.295,0 26.2676,10.9725 10.9726,10.9726 10.9726,26.2676 l 0,15.9602 2.66,0 q 3.3251,0 5.6526,2.3276 2.3274,2.3274 2.3274,5.6524 z"
       id="path5027"
       style="fill:#00547c;fill-opacity:1"
       inkscape:export-filename="/media/D/owncloud_backup/p2b_utils/Entreprises/Carrefour/images/flowRoot5926-3-9.png"
       inkscape:export-xdpi="109.83"
       inkscape:export-ydpi="109.83" />
    <path
       inkscape:connector-curvature="0"
       d="m -6110.2577,-1962.4199 q -2.1612,0 -3.6575,-1.4963 l -51.8703,-50.0416 q -0.8313,-0.665 -2.2859,-2.1613 -1.4548,-1.4962 -4.6135,-5.4447 -3.1588,-3.9484 -5.6526,-8.1047 -2.4938,-4.1564 -4.4472,-10.0582 -1.9534,-5.902 -1.9534,-11.4714 0,-18.2876 10.5569,-28.5951 10.5569,-10.3077 29.1771,-10.3077 5.1537,0 10.5154,1.7873 5.3615,1.7872 9.9751,4.8213 4.6134,3.0341 7.9384,5.6941 3.325,2.66 6.3175,5.6525 2.9926,-2.9925 6.3175,-5.6525 3.3251,-2.66 7.9386,-5.6941 4.6134,-3.0341 9.975,-4.8213 5.3616,-1.7873 10.5154,-1.7873 18.6202,0 29.1771,10.3077 10.5569,10.3075 10.5569,28.5951 0,18.3708 -19.0357,37.4066 l -51.7872,49.8753 q -1.4963,1.4963 -3.6576,1.4963 z"
       id="path5056"
       style="fill:#00547c;fill-opacity:1"
       inkscape:export-filename="/media/D/owncloud_backup/p2b_utils/Entreprises/Carrefour/images/flowRoot5926-3-9.png"
       inkscape:export-xdpi="109.83"
       inkscape:export-ydpi="109.83" />
    <path
       inkscape:connector-curvature="0"
       d="m -6090.3165,-1774.6338 25.3533,0 q -0.4157,0.4989 -0.8312,0.8729 -0.4157,0.374 -0.7483,0.6235 l -0.2492,0.3324 -51.7873,49.8753 q -1.4962,1.4964 -3.6575,1.4964 -2.1613,0 -3.6576,-1.4964 l -51.8703,-50.0416 q -0.4156,-0.1661 -1.7457,-1.6625 l 30.6734,0 q 1.8288,0 3.2834,-1.1221 1.4547,-1.1222 1.8703,-2.8678 l 5.8188,-23.3583 15.7939,55.4447 q 0.4988,1.6625 1.9119,2.7431 1.4131,1.0807 3.2419,1.0807 1.7457,0 3.1588,-1.0807 1.4132,-1.0806 1.9118,-2.7431 l 12.1364,-40.3159 4.655,9.3101 q 1.4963,2.9093 4.7382,2.9093 z m 42.5602,-35.5776 q 0,12.0532 -8.5619,24.9376 l -30.6733,0 -9.2269,-18.3707 q -0.665,-1.4131 -2.1198,-2.2445 -1.4546,-0.8311 -3.034,-0.665 -3.7407,0.4157 -4.6551,3.8238 l -10.7232,35.744 -16.2926,-57.0241 q -0.4987,-1.6625 -1.9534,-2.7432 -1.4548,-1.0806 -3.2834,-1.0806 -1.8288,0 -3.2419,1.1222 -1.4132,1.1222 -1.8288,2.8679 l -9.6426,38.5702 -35.1622,0 q -8.5619,-12.8844 -8.5619,-24.9376 0,-18.2877 10.557,-28.5953 10.5569,-10.3075 29.1771,-10.3075 5.1538,0 10.5154,1.7872 5.3616,1.7871 9.975,4.8212 4.6135,3.0341 7.9385,5.6942 3.325,2.66 6.3176,5.6524 2.9925,-2.9924 6.3175,-5.6524 3.325,-2.6601 7.9385,-5.6942 4.6134,-3.0341 9.9751,-4.8212 5.3615,-1.7872 10.5153,-1.7872 18.6202,0 29.1771,10.3075 10.5569,10.3076 10.5569,28.5953 z"
       id="path5085"
       style="fill:#00547c;fill-opacity:1"
       inkscape:export-filename="/media/D/owncloud_backup/p2b_utils/Entreprises/Carrefour/images/flowRoot5926-3-9.png"
       inkscape:export-xdpi="109.83"
       inkscape:export-ydpi="109.83" />
    <path
       style="fill:#00547c;fill-opacity:1;stroke:none;stroke-width:72.87034607;stroke-linejoin:round"
       inkscape:connector-curvature="0"
       id="path5284"
       d="m -6685.5074,-2094.551 c -38.9541,0 -70.5326,31.5786 -70.5326,70.533 0,30.2359 19.0309,56.019 45.7647,66.0481 l 16.254,-43.344 c -9.1896,-3.4471 -15.7317,-12.3106 -15.7317,-22.7041 0,-13.3904 10.8554,-24.2459 24.2456,-24.2459 13.3905,0 24.2464,10.8555 24.2464,24.2459 0,10.3935 -6.5425,19.257 -15.732,22.7041 l 16.2539,43.344 c 26.7333,-10.0291 45.7647,-35.8122 45.7647,-66.0481 0,-38.9544 -31.5781,-70.533 -70.533,-70.533 z"
       inkscape:export-filename="/media/D/owncloud_backup/p2b_utils/Entreprises/Carrefour/images/flowRoot5926-3-9.png"
       inkscape:export-xdpi="109.83"
       inkscape:export-ydpi="109.83" />
    <text
       xml:space="preserve"
       style="font-style:normal;font-weight:normal;font-size:21.26315308px;line-height:1000%;font-family:sans-serif;letter-spacing:0px;word-spacing:0px;fill:#00547c;fill-opacity:1;stroke:none;stroke-width:1px;stroke-linecap:butt;stroke-linejoin:miter;stroke-opacity:1"
       x="-6760.1201"
       y="-1920.3904"
       id="text5882"
       sodipodi:linespacing="1000%"
       inkscape:export-filename="/media/D/owncloud_backup/p2b_utils/Entreprises/Carrefour/images/flowRoot5926-3-9.png"
       inkscape:export-xdpi="109.83"
       inkscape:export-ydpi="109.83"><tspan
         sodipodi:role="line"
         id="tspan5884"
         x="-6760.1201"
         y="-1920.3904"
         style="font-style:normal;font-variant:normal;font-weight:bold;font-stretch:normal;font-family:'Open Sans';-inkscape-font-specification:'Open Sans Bold';fill:#00547c;fill-opacity:1">OPEN SOURCE</tspan></text>
    <text
       xml:space="preserve"
       style="font-style:normal;font-weight:normal;font-size:40px;line-height:1000%;font-family:sans-serif;letter-spacing:0px;word-spacing:0px;display:inline;fill:#000000;fill-opacity:1;stroke:none;stroke-width:1px;stroke-linecap:butt;stroke-linejoin:miter;stroke-opacity:1"
       x="-6753.9497"
       y="-1988.5864"
       id="text5882-1"
       sodipodi:linespacing="1000%"><tspan
         sodipodi:role="line"
         x="-6753.9497"
         y="-1988.5864"
         style="font-style:normal;font-variant:normal;font-weight:normal;font-stretch:normal;font-family:Ubuntu;-inkscape-font-specification:Ubuntu"
         id="tspan5904" /></text>
    <flowRoot
       xml:space="preserve"
       id="flowRoot5926"
       style="font-style:normal;font-weight:normal;font-size:40px;line-height:100%;font-family:sans-serif;text-align:center;letter-spacing:0px;word-spacing:0px;text-anchor:middle;fill:#00547c;fill-opacity:1;stroke:none;stroke-width:1px;stroke-linecap:butt;stroke-linejoin:miter;stroke-opacity:1"
       transform="matrix(0.53157881,0,0,0.53157881,-2351.9625,-531.60147)"
       inkscape:export-filename="/media/D/owncloud_backup/p2b_utils/Entreprises/Carrefour/images/flowRoot5926-3-9.png"
       inkscape:export-xdpi="109.83"
       inkscape:export-ydpi="109.83"><flowRegion
         id="flowRegion5928"><rect
           id="rect5930"
           width="408.10144"
           height="90.913757"
           x="-7820.6011"
           y="-2663.989"
           style="line-height:100%;text-align:center;text-anchor:middle;fill:#00547c;fill-opacity:1" /></flowRegion><flowPara
         id="flowPara5934"
         style="font-style:normal;font-variant:normal;font-weight:bold;font-stretch:normal;font-family:'Open Sans';-inkscape-font-specification:'Open Sans Bold';fill:#00547c;fill-opacity:1">UNAUTHENTICATED &amp; AUTHENTICATED</flowPara></flowRoot>    <text
       xml:space="preserve"
       style="font-style:normal;font-weight:normal;font-size:21.26315308px;line-height:1000%;font-family:sans-serif;letter-spacing:0px;word-spacing:0px;display:inline;fill:#00547c;fill-opacity:1;stroke:none;stroke-width:1px;stroke-linecap:butt;stroke-linejoin:miter;stroke-opacity:1"
       x="-6178.1636"
       y="-1920.3904"
       id="text5882-7"
       sodipodi:linespacing="1000%"
       inkscape:export-filename="/media/D/owncloud_backup/p2b_utils/Entreprises/Carrefour/images/flowRoot5926-3-9.png"
       inkscape:export-xdpi="109.83"
       inkscape:export-ydpi="109.83"><tspan
         sodipodi:role="line"
         id="tspan5884-0"
         x="-6178.1636"
         y="-1920.3904"
         style="font-style:normal;font-variant:normal;font-weight:bold;font-stretch:normal;font-family:'Open Sans';-inkscape-font-specification:'Open Sans Bold';fill:#00547c;fill-opacity:1">BEST EFFORT</tspan></text>
    <text
       xml:space="preserve"
       style="font-style:normal;font-weight:normal;font-size:21.26315308px;line-height:1000%;font-family:sans-serif;letter-spacing:0px;word-spacing:0px;display:inline;fill:#00547c;fill-opacity:1;stroke:none;stroke-width:1px;stroke-linecap:butt;stroke-linejoin:miter;stroke-opacity:1"
       x="-6729.4351"
       y="-1677.371"
       id="text5882-9"
       sodipodi:linespacing="1000%"
       inkscape:export-filename="/media/D/owncloud_backup/p2b_utils/Entreprises/Carrefour/images/flowRoot5926-3-9.png"
       inkscape:export-xdpi="109.83"
       inkscape:export-ydpi="109.83"><tspan
         sodipodi:role="line"
         id="tspan5884-3"
         x="-6729.4351"
         y="-1677.371"
         style="font-style:normal;font-variant:normal;font-weight:bold;font-stretch:normal;font-family:'Open Sans';-inkscape-font-specification:'Open Sans Bold';fill:#00547c;fill-opacity:1">PRIVATE</tspan></text>
    <text
       xml:space="preserve"
       style="font-style:normal;font-weight:normal;font-size:21.26315308px;line-height:100%;font-family:sans-serif;text-align:center;letter-spacing:0px;word-spacing:0px;text-anchor:middle;display:inline;fill:#00547c;fill-opacity:1;stroke:none;stroke-width:1px;stroke-linecap:butt;stroke-linejoin:miter;stroke-opacity:1"
       x="-6413.894"
       y="-1688.0284"
       id="text5882-6"
       sodipodi:linespacing="100%"
       inkscape:export-filename="/media/D/owncloud_backup/p2b_utils/Entreprises/Carrefour/images/flowRoot5926-3-9.png"
       inkscape:export-xdpi="109.83"
       inkscape:export-ydpi="109.83"><tspan
         sodipodi:role="line"
         id="tspan5884-06"
         x="-6413.894"
         y="-1688.0284"
         style="font-style:normal;font-variant:normal;font-weight:bold;font-stretch:normal;line-height:100%;font-family:'Open Sans';-inkscape-font-specification:'Open Sans Bold';text-align:center;text-anchor:middle;fill:#00547c;fill-opacity:1">AUTHENTICATED</tspan><tspan
         sodipodi:role="line"
         x="-6413.894"
         y="-1666.7653"
         style="font-style:normal;font-variant:normal;font-weight:bold;font-stretch:normal;line-height:100%;font-family:'Open Sans';-inkscape-font-specification:'Open Sans Bold';text-align:center;text-anchor:middle;fill:#00547c;fill-opacity:1"
         id="tspan5984">ONLY</tspan></text>
    <text
       xml:space="preserve"
       style="font-style:normal;font-weight:normal;font-size:21.26315308px;line-height:100%;font-family:sans-serif;text-align:center;letter-spacing:0px;word-spacing:0px;text-anchor:middle;display:inline;fill:#00547c;fill-opacity:1;stroke:none;stroke-width:1px;stroke-linecap:butt;stroke-linejoin:miter;stroke-opacity:1"
       x="-6122.2212"
       y="-1678.6636"
       id="text5882-6-2"
       sodipodi:linespacing="100%"
       inkscape:export-filename="/media/D/owncloud_backup/p2b_utils/Entreprises/Carrefour/images/flowRoot5926-3-9.png"
       inkscape:export-xdpi="109.83"
       inkscape:export-ydpi="109.83"><tspan
         sodipodi:role="line"
         x="-6122.2212"
         y="-1678.6636"
         style="font-style:normal;font-variant:normal;font-weight:bold;font-stretch:normal;line-height:100%;font-family:'Open Sans';-inkscape-font-specification:'Open Sans Bold';text-align:center;text-anchor:middle;fill:#00547c;fill-opacity:1"
         id="tspan5984-1">QUALITY of SERVICE</tspan></text>
    <text
       xml:space="preserve"
       style="font-style:normal;font-weight:normal;font-size:78.7940979px;line-height:1000%;font-family:sans-serif;letter-spacing:0px;word-spacing:0px;display:inline;fill:#00547c;fill-opacity:1;stroke:none;stroke-width:1px;stroke-linecap:butt;stroke-linejoin:miter;stroke-opacity:1"
       x="-6564.4834"
       y="-1998.4055"
       id="text5882-8"
       sodipodi:linespacing="1000%"
       inkscape:export-filename="/media/D/owncloud_backup/p2b_utils/Entreprises/Carrefour/images/flowRoot5926-3-9.png"
       inkscape:export-xdpi="109.83"
       inkscape:export-ydpi="109.83"><tspan
         sodipodi:role="line"
         id="tspan5884-7"
         x="-6564.4834"
         y="-1998.4055"
         style="font-style:normal;font-variant:normal;font-weight:bold;font-stretch:normal;font-family:'Open Sans';-inkscape-font-specification:'Open Sans Bold';fill:#00547c;fill-opacity:1">+</tspan></text>
    <text
       xml:space="preserve"
       style="font-style:normal;font-weight:normal;font-size:78.7940979px;line-height:1000%;font-family:sans-serif;letter-spacing:0px;word-spacing:0px;display:inline;fill:#00547c;fill-opacity:1;stroke:none;stroke-width:1px;stroke-linecap:butt;stroke-linejoin:miter;stroke-opacity:1"
       x="-6569.8374"
       y="-1757.4188"
       id="text5882-8-9"
       sodipodi:linespacing="1000%"
       inkscape:export-filename="/media/D/owncloud_backup/p2b_utils/Entreprises/Carrefour/images/flowRoot5926-3-9.png"
       inkscape:export-xdpi="109.83"
       inkscape:export-ydpi="109.83"><tspan
         sodipodi:role="line"
         id="tspan5884-7-2"
         x="-6569.8374"
         y="-1757.4188"
         style="font-style:normal;font-variant:normal;font-weight:bold;font-stretch:normal;font-family:'Open Sans';-inkscape-font-specification:'Open Sans Bold';fill:#00547c;fill-opacity:1">+</tspan></text>
    <text
       xml:space="preserve"
       style="font-style:normal;font-weight:normal;font-size:78.7940979px;line-height:1000%;font-family:sans-serif;letter-spacing:0px;word-spacing:0px;display:inline;fill:#00547c;fill-opacity:1;stroke:none;stroke-width:1px;stroke-linecap:butt;stroke-linejoin:miter;stroke-opacity:1"
       x="-6304.1626"
       y="-1757.4188"
       id="text5882-8-0"
       sodipodi:linespacing="1000%"
       inkscape:export-filename="/media/D/owncloud_backup/p2b_utils/Entreprises/Carrefour/images/flowRoot5926-3-9.png"
       inkscape:export-xdpi="109.83"
       inkscape:export-ydpi="109.83"><tspan
         sodipodi:role="line"
         id="tspan5884-7-23"
         x="-6304.1626"
         y="-1757.4188"
         style="font-style:normal;font-variant:normal;font-weight:bold;font-stretch:normal;font-family:'Open Sans';-inkscape-font-specification:'Open Sans Bold';fill:#00547c;fill-opacity:1">+</tspan></text>
    <text
       xml:space="preserve"
       style="font-style:normal;font-weight:normal;font-size:78.7940979px;line-height:1000%;font-family:sans-serif;letter-spacing:0px;word-spacing:0px;display:inline;fill:#00547c;fill-opacity:1;stroke:none;stroke-width:1px;stroke-linecap:butt;stroke-linejoin:miter;stroke-opacity:1"
       x="-6280.2046"
       y="-1998.4055"
       id="text5882-8-7"
       sodipodi:linespacing="1000%"
       inkscape:export-filename="/media/D/owncloud_backup/p2b_utils/Entreprises/Carrefour/images/flowRoot5926-3-9.png"
       inkscape:export-xdpi="109.83"
       inkscape:export-ydpi="109.83"><tspan
         sodipodi:role="line"
         id="tspan5884-7-5"
         x="-6280.2046"
         y="-1998.4055"
         style="font-style:normal;font-variant:normal;font-weight:bold;font-stretch:normal;font-family:'Open Sans';-inkscape-font-specification:'Open Sans Bold';fill:#00547c;fill-opacity:1">+</tspan></text>
    <text
       xml:space="preserve"
       style="font-style:normal;font-weight:normal;font-size:78.7940979px;line-height:1000%;font-family:sans-serif;letter-spacing:0px;word-spacing:0px;display:inline;fill:#00547c;fill-opacity:1;stroke:none;stroke-width:1px;stroke-linecap:butt;stroke-linejoin:miter;stroke-opacity:1"
       x="-5985.2861"
       y="-1998.5209"
       id="text5882-8-92"
       sodipodi:linespacing="1000%"
       inkscape:export-filename="/media/D/owncloud_backup/p2b_utils/Entreprises/Carrefour/images/flowRoot5926-3-9.png"
       inkscape:export-xdpi="109.83"
       inkscape:export-ydpi="109.83"><tspan
         sodipodi:role="line"
         id="tspan5884-7-28"
         x="-5985.2861"
         y="-1998.5209"
         style="font-style:normal;font-variant:normal;font-weight:bold;font-stretch:normal;font-family:'Open Sans';-inkscape-font-specification:'Open Sans Bold';fill:#00547c;fill-opacity:1">=</tspan></text>
    <text
       xml:space="preserve"
       style="font-style:normal;font-weight:normal;font-size:78.7940979px;line-height:1000%;font-family:sans-serif;letter-spacing:0px;word-spacing:0px;display:inline;fill:#00547c;fill-opacity:1;stroke:none;stroke-width:1px;stroke-linecap:butt;stroke-linejoin:miter;stroke-opacity:1"
       x="-5985.2871"
       y="-1757.5343"
       id="text5882-8-92-9"
       sodipodi:linespacing="1000%"
       inkscape:export-filename="/media/D/owncloud_backup/p2b_utils/Entreprises/Carrefour/images/flowRoot5926-3-9.png"
       inkscape:export-xdpi="109.83"
       inkscape:export-ydpi="109.83"><tspan
         sodipodi:role="line"
         id="tspan5884-7-28-7"
         x="-5985.2871"
         y="-1757.5343"
         style="font-style:normal;font-variant:normal;font-weight:bold;font-stretch:normal;font-family:'Open Sans';-inkscape-font-specification:'Open Sans Bold';fill:#00547c;fill-opacity:1">=</tspan></text>
    <flowRoot
       xml:space="preserve"
       id="flowRoot5926-3"
       style="font-style:normal;font-weight:normal;font-size:40px;line-height:100%;font-family:sans-serif;text-align:center;letter-spacing:0px;word-spacing:0px;text-anchor:middle;display:inline;fill:#00547c;fill-opacity:1;stroke:none;stroke-width:1px;stroke-linecap:butt;stroke-linejoin:miter;stroke-opacity:1"
       transform="matrix(0.86028907,0,0,0.86028907,733.73723,249.927)"
       inkscape:export-filename="/media/D/owncloud_backup/p2b_utils/Entreprises/Carrefour/images/flowRoot5926-3-9.png"
       inkscape:export-xdpi="109.83"
       inkscape:export-ydpi="109.83"><flowRegion
         id="flowRegion5928-6"><rect
           id="rect5930-1"
           width="408.10144"
           height="90.913757"
           x="-7820.6011"
           y="-2663.989"
           style="line-height:100%;text-align:center;text-anchor:middle;fill:#00547c;fill-opacity:1" /></flowRegion><flowPara
         id="flowPara5934-2"
         style="font-style:normal;font-variant:normal;font-weight:bold;font-stretch:normal;font-size:42.48112106px;font-family:'Open Sans';-inkscape-font-specification:'Open Sans Bold';fill:#00547c;fill-opacity:1">100% FREE</flowPara></flowRoot>    <flowRoot
       xml:space="preserve"
       id="flowRoot5926-3-9"
       style="font-style:normal;font-weight:normal;font-size:40px;line-height:100%;font-family:sans-serif;text-align:center;letter-spacing:0px;word-spacing:0px;text-anchor:middle;display:inline;fill:#00547c;fill-opacity:1;stroke:none;stroke-width:1px;stroke-linecap:butt;stroke-linejoin:miter;stroke-opacity:1"
       transform="matrix(0.53157881,0,0,0.53157881,-1778.431,-384.76665)"
       inkscape:export-filename="/media/D/owncloud_backup/p2b_utils/Entreprises/Carrefour/images/flowRoot5926-3-9.png"
       inkscape:export-xdpi="109.83"
       inkscape:export-ydpi="109.83"><flowRegion
         id="flowRegion5928-6-3"><rect
           id="rect5930-1-1"
           width="483.1629"
           height="72.861084"
           x="-7820.6011"
           y="-2663.989"
           style="line-height:100%;text-align:center;text-anchor:middle;fill:#00547c;fill-opacity:1" /></flowRegion><flowPara
         id="flowPara5934-2-9"
         style="font-style:normal;font-variant:normal;font-weight:bold;font-stretch:normal;font-size:68.75px;font-family:'Open Sans';-inkscape-font-specification:'Open Sans Bold';fill:#00547c;fill-opacity:1">PREMIUM</flowPara></flowRoot>    <flowRoot
       xml:space="preserve"
       id="flowRoot7485"
       style="font-style:normal;font-weight:normal;font-size:40px;line-height:274.00000095%;font-family:sans-serif;letter-spacing:0px;word-spacing:0px;fill:#000000;fill-opacity:1;stroke:none;stroke-width:1px;stroke-linecap:butt;stroke-linejoin:miter;stroke-opacity:1"
       transform="translate(-6758.8846,-2094.551)"><flowRegion
         id="flowRegion7487"><rect
           id="rect7489"
           width="1240.7142"
           height="602.85712"
           x="-72.14286"
           y="-99.86377" /></flowRegion><flowPara
         id="flowPara7491"></flowPara></flowRoot>  </g>
</svg>
